<svg width="16" height="16" viewBox="0 0 16 16" fill="none" xmlns="http://www.w3.org/2000/svg">
<path d="M7.99992 12.6667C10.5772 12.6667 12.6666 10.5773 12.6666 8C12.6666 5.42267 10.5772 3.33333 7.99992 3.33333C5.42259 3.33333 3.33325 5.42267 3.33325 8C3.33325 10.5773 5.42259 12.6667 7.99992 12.6667Z" fill="#969AA1"/>
<path d="M8.00008 15.3067C7.63341 15.3067 7.33342 15.0333 7.33342 14.6667V14.6133C7.33342 14.2467 7.63341 13.9467 8.00008 13.9467C8.36675 13.9467 8.66675 14.2467 8.66675 14.6133C8.66675 14.98 8.36675 15.3067 8.00008 15.3067ZM12.7601 13.4267C12.5867 13.4267 12.4201 13.36 12.2867 13.2333L12.2001 13.1467C11.9401 12.8867 11.9401 12.4667 12.2001 12.2067C12.4601 11.9467 12.8801 11.9467 13.1401 12.2067L13.2267 12.2933C13.4867 12.5533 13.4867 12.9733 13.2267 13.2333C13.1001 13.36 12.9334 13.4267 12.7601 13.4267ZM3.24008 13.4267C3.06675 13.4267 2.90008 13.36 2.76675 13.2333C2.50675 12.9733 2.50675 12.5533 2.76675 12.2933L2.85342 12.2067C3.11342 11.9467 3.53341 11.9467 3.79341 12.2067C4.05341 12.4667 4.05341 12.8867 3.79341 13.1467L3.70675 13.2333C3.58008 13.36 3.40675 13.4267 3.24008 13.4267ZM14.6667 8.66667H14.6134C14.2467 8.66667 13.9467 8.36667 13.9467 8C13.9467 7.63333 14.2467 7.33333 14.6134 7.33333C14.9801 7.33333 15.3067 7.63333 15.3067 8C15.3067 8.36667 15.0334 8.66667 14.6667 8.66667ZM1.38675 8.66667H1.33341C0.966748 8.66667 0.666748 8.36667 0.666748 8C0.666748 7.63333 0.966748 7.33333 1.33341 7.33333C1.70008 7.33333 2.02675 7.63333 2.02675 8C2.02675 8.36667 1.75341 8.66667 1.38675 8.66667ZM12.6734 3.99333C12.5001 3.99333 12.3334 3.92667 12.2001 3.8C11.9401 3.54 11.9401 3.12 12.2001 2.86L12.2867 2.77333C12.5467 2.51333 12.9667 2.51333 13.2267 2.77333C13.4867 3.03333 13.4867 3.45333 13.2267 3.71333L13.1401 3.8C13.0134 3.92667 12.8467 3.99333 12.6734 3.99333ZM3.32675 3.99333C3.15341 3.99333 2.98675 3.92667 2.85342 3.8L2.76675 3.70667C2.50675 3.44667 2.50675 3.02667 2.76675 2.76667C3.02675 2.50667 3.44675 2.50667 3.70675 2.76667L3.79341 2.85333C4.05341 3.11333 4.05341 3.53333 3.79341 3.79333C3.66675 3.92667 3.49341 3.99333 3.32675 3.99333ZM8.00008 2.02667C7.63341 2.02667 7.33342 1.75333 7.33342 1.38667V1.33333C7.33342 0.966668 7.63341 0.666668 8.00008 0.666668C8.36675 0.666668 8.66675 0.966668 8.66675 1.33333C8.66675 1.7 8.36675 2.02667 8.00008 2.02667Z" fill="#969AA1"/>
</svg>
